#!OML:ASF E:\emotionWalksFemale\Project 1\Capture day 1\Session 1\Female1.ASF
:FULLY-SPECIFIED
:DEGREES
48
root 10.0789 15.2695 19.9811 189.124 -3.15224 -178.148
lowerback 16.0016 2.12741 2.69101
upperback -2.74358 3.36668 -0.200338
thorax -11.8772 1.38449 -2.61316
lowerneck -6.28842 -4.96918 -9.47792
upperneck 0.561867 -6.35877 11.0931
head 1.86302 -3.04746 4.63719
rclavicle 3.59552e-014 3.18055e-015
rhumerus -31.403 22.0633 -77.0416
rradius 43.6017
rwrist 14.3141
rhand 4.87535 -56.5428
rfingers 7.12502
rthumb 30.2511 -84.0843
lclavicle 3.59552e-014 3.18055e-015
lhumerus -50.626 7.61676 52.2698
lradius 37.459
lwrist -5.97825
lhand -2.19017 -31.4455
lfingers 7.12502
lthumb 23.491 -2.85979
rfemur -21.3709 1.5569 24.1029
rtibia 33.2826
rfoot -20.6576 -27.8863
rtoes 3.20498
lfemur -27.6798 -11.095 -15.464
ltibia 37.2673
lfoot -23.0575 14.5139
ltoes -56.0564
49
root 10.0821 15.2418 19.991 189.55 -3.31277 -178.138
lowerback 16.3161 2.13787 2.91224
upperback -2.70651 3.42672 -0.262414
thorax -12.0003 1.38998 -2.83708
lowerneck -6.42074 -4.98748 -9.50406
upperneck -0.138529 -6.35051 11.2651
head 1.68486 -3.05335 4.69926
rclavicle -1.21756e-015 -2.68359e-015
rhumerus -31.0655 22.5269 -76.7803
rradius 43.8907
rwrist 13.8601
rhand 4.95481 -56.6141
rfingers 7.12502
rthumb 30.3269 -84.1416
lclavicle -1.21756e-015 -2.68359e-015
lhumerus -50.8925 7.88963 51.4195
lradius 37.6026
lwrist -5.80377
lhand -2.67063 -31.5019
lfingers 7.12502
lthumb 23.03 -2.85789
rfemur -22.4549 0.965646 24.1776
rtibia 34.3176
rfoot -21.2166 -27.4778
rtoes 3.59078
lfemur -28.7435 -10.96 -15.3033
ltibia 38.1542
lfoot -23.7533 13.8668
ltoes -55.1778
50
root 10.0873 15.2084 20.0028 190.052 -3.41361 -178.071
lowerback 16.4843 2.17352 3.08598
upperback -2.63029 3.50897 -0.290978
thorax -11.9953 1.41489 -2.99406
lowerneck -6.62227 -5.11188 -9.42692
upperneck -0.711078 -6.48844 11.2709
head 1.56111 -3.13118 4.6832
rclavicle -5.73991e-015 -9.0447e-015
rhumerus -30.6306 22.9898 -76.4328
rradius 44.2211
rwrist 13.44
rhand 5.10937 -56.5831
rfingers 7.12502
rthumb 30.4743 -84.0835
lclavicle -5.73991e-015 -9.0447e-015
lhumerus -50.9332 8.31048 50.5453
lradius 37.5706
lwrist -5.53702
lhand -3.10494 -31.1297
lfingers 7.12502
lthumb 22.6133 -2.4343
rfemur -23.6819 0.532794 24.302
rtibia 35.4255
rfoot -21.6536 -27.0558
rtoes 3.71208
lfemur -29.9091 -10.5995 -15.1278
ltibia 39.0975
lfoot -24.1967 13.5158
ltoes -55.0061
51
root 10.0932 15.1761 20.0143 190.562 -3.45157 -177.978
lowerback 16.3842 2.21224 3.15826
upperback -2.38804 3.56826 -0.222358
thorax -11.6572 1.45201 -2.95935
lowerneck -6.73156 -5.17322 -9.57961
upperneck -1.62637 -6.52598 11.4432
head 1.32523 -3.16879 4.76812
rclavicle -1.52816e-014 -1.67973e-014
rhumerus -29.9106 23.6319 -75.8558
rradius 44.7315
rwrist 13.0678
rhand 5.30535 -56.8358
rfingers 7.12502
rthumb 30.6612 -84.3013
lclavicle -1.52816e-014 -1.67973e-014
lhumerus -50.7344 9.41241 49.5164
lradius 37.1861
lwrist -5.58707
lhand -3.08019 -31.4436
lfingers 7.12502
lthumb 22.637 -2.75105
rfemur -24.9361 0.169536 24.4641
rtibia 36.599
rfoot -22.0702 -26.6659
rtoes 3.18128
lfemur -31.0404 -10.1016 -14.9875
ltibia 40.0726
lfoot -24.4605 13.4655
ltoes -55.4735
52
root 10.0995 15.1401 20.028 191.074 -3.48402 -177.97
lowerback 16.2492 2.30933 3.07735
upperback -2.10128 3.67322 -0.116274
thorax -11.2588 1.52366 -2.80486
lowerneck -6.72426 -5.24926 -9.93617
upperneck -2.79199 -6.57677 11.7816
head 1.01261 -3.22241 4.94435
rclavicle 9.93923e-017 1.23246e-014
rhumerus -29.1186 24.3619 -75.1331
rradius 45.2332
rwrist 12.6231
rhand 5.5372 -57.1871
rfingers 7.12502
rthumb 30.8822 -84.611
lclavicle 9.93923e-017 1.23246e-014
lhumerus -50.4955 10.7724 48.5899
lradius 36.7993
lwrist -5.95543
lhand -2.82959 -31.6232
lfingers 7.12502
lthumb 22.8775 -2.96026
rfemur -26.2213 -0.247395 24.5594
rtibia 37.7957
rfoot -22.4832 -26.2767
rtoes 2.52074
lfemur -32.158 -9.57362 -14.9872
ltibia 41.054
lfoot -24.55 13.7594
ltoes -56.3321
53
root 10.1057 15.1032 20.0421 191.628 -3.50526 -178.034
lowerback 17.0577 2.32915 3.18284
upperback -2.42508 3.74842 -0.261804
thorax -12.0778 1.51653 -3.10348
lowerneck -6.54934 -5.33263 -10.0233
upperneck -3.39685 -6.68759 12.0817
head 0.835068 -3.29921 5.05879
rclavicle 2.64384e-014 5.96354e-016
rhumerus -29.4265 24.9498 -75.2019
rradius 45.6887
rwrist 12.3473
rhand 5.90178 -57.2192
rfingers 7.12502
rthumb 31.2297 -84.5766
lclavicle 2.64384e-014 5.96354e-016
lhumerus -50.8257 11.1756 47.3302
lradius 36.5536
lwrist -6.17878
lhand -2.74624 -31.1484
lfingers 7.12502
lthumb 22.9575 -2.49539
rfemur -27.5509 -0.596284 24.5566
rtibia 39.0122
rfoot -23.0374 -25.8261
rtoes 2.511
lfemur -33.339 -9.17403 -15.0297
ltibia 42.0521
lfoot -24.8977 13.87
ltoes -56.6489
54
root 10.1114 15.0687 20.0551 192.152 -3.49808 -178.034
lowerback 17.1414 2.42258 3.22843
upperback -2.3118 3.87898 -0.265209
thorax -11.9851 1.57712 -3.16742
lowerneck -6.48465 -5.40606 -10.1805
upperneck -4.31526 -6.76443 12.3266
head 0.580171 -3.36733 5.17338
rclavicle -5.13858e-014 1.98785e-016
rhumerus -28.9864 25.5467 -74.7377
rradius 46.0777
rwrist 11.8533
rhand 6.00685 -57.1459
rfingers 7.12502
rthumb 31.3298 -84.484
lclavicle -5.13858e-014 1.98785e-016
lhumerus -50.4824 12.1428 46.3262
lradius 35.9475
lwrist -6.5181
lhand -2.5487 -30.6459
lfingers 7.12502
lthumb 23.147 -2.01651
rfemur -28.84 -0.843794 24.6078
rtibia 40.2674
rfoot -23.7113 -25.3914
rtoes 2.55607
lfemur -34.518 -8.75299 -14.9951
ltibia 43.0952
lfoot -25.5723 13.423
ltoes -56.3839
55
root 10.1182 15.0264 20.0693 192.706 -3.39163 -177.975
lowerback 17.3004 2.5539 3.33342
upperback -2.20013 4.07266 -0.288291
thorax -11.9278 1.66083 -3.3078
lowerneck -6.71178 -5.53482 -10.3132
upperneck -5.01863 -6.90863 12.5179
head 0.439985 -3.4598 5.25402
rclavicle -3.53837e-014 5.1684e-015
rhumerus -28.4138 26.2362 -74.2301
rradius 46.3945
rwrist 11.1246
rhand 5.77908 -57.0596
rfingers 7.12502
rthumb 31.1128 -84.4395
lclavicle -3.53837e-014 5.1684e-015
lhumerus -49.9378 13.4554 45.2055
lradius 35.1089
lwrist -7.26642
lhand -1.96233 -30.416
lfingers 7.12502
lthumb 23.7095 -1.85841
rfemur -30.21 -1.05459 24.7463
rtibia 41.563
rfoot -24.1784 -24.9952
rtoes 2.0404
lfemur -35.7684 -8.14322 -14.9298
ltibia 44.2045
lfoot -26.1297 12.8636
ltoes -56.1538
56
root 10.1253 14.9759 20.0824 193.334 -3.1942 -177.979
lowerback 17.5559 2.78482 3.45789
upperback -2.27328 4.40151 -0.45839
thorax -12.1129 1.79161 -3.67306
lowerneck -6.60414 -5.75029 -10.18
upperneck -5.83687 -7.20523 12.6021
head 0.21595 -3.64364 5.26323
rclavicle 6.4605e-016 1.13307e-014
rhumerus -28.2654 26.5758 -73.8949
rradius 46.6598
rwrist 10.6005
rhand 5.76941 -56.8973
rfingers 7.12502
rthumb 31.1036 -84.279
lclavicle 6.4605e-016 1.13307e-014
lhumerus -49.2889 14.2966 44.1713
lradius 34.4201
lwrist -8.23662
lhand -1.31227 -29.8415
lfingers 7.12502
lthumb 24.3329 -1.36607
rfemur -31.6965 -1.26649 24.8323
rtibia 42.8868
rfoot -24.3459 -24.6126
rtoes 1.33134
lfemur -37.117 -7.52532 -14.9357
ltibia 45.3917
lfoot -26.5543 12.6412
ltoes -56.1325
57
root 10.131 14.9254 20.0928 193.876 -3.0246 -178.033
lowerback 17.9525 2.92544 3.49417
upperback -2.34602 4.60537 -0.538546
thorax -12.4022 1.86739 -3.86919
lowerneck -6.68548 -5.90297 -10.3226
upperneck -6.49407 -7.39286 12.7357
head 0.0692695 -3.76048 5.33066
rclavicle -3.93594e-014 -2.96189e-014
rhumerus -28.0164 27.1607 -73.4553
rradius 46.9164
rwrist 10.2482
rhand 6.0031 -56.5822
rfingers 7.12502
rthumb 31.3263 -83.921
lclavicle -3.93594e-014 -2.96189e-014
lhumerus -48.9103 15.163 43.2562
lradius 33.8973
lwrist -9.27659
lhand -0.687612 -28.9909
lfingers 7.12502
lthumb 24.9316 -0.597203
rfemur -33.0848 -1.5431 24.8765
rtibia 44.2432
rfoot -24.6315 -24.2556
rtoes 0.556565
lfemur -38.3637 -6.96773 -15.0287
ltibia 46.6319
lfoot -26.9831 12.5844
ltoes -56.2908
58
root 10.1373 14.8754 20.1036 194.37 -2.85367 -178.004
lowerback 18.2757 3.03439 3.52911
upperback -2.29744 4.76714 -0.529373
thorax -12.52 1.93375 -3.94427
lowerneck -7.02897 -5.99027 -10.5721
upperneck -7.01337 -7.47687 12.9038
head -0.00106368 -3.8161 5.42098
rclavicle 4.58199e-014 -3.18055e-015
rhumerus -27.5124 27.9221 -72.8976
rradius 47.1952
rwrist 9.78003
rhand 6.08305 -56.4558
rfingers 7.12502
rthumb 31.4025 -83.7798
lclavicle 4.58199e-014 -3.18055e-015
lhumerus -48.4407 16.7173 42.1186
lradius 33.09
lwrist -11.0575
lhand 0.426706 -29.0442
lfingers 7.12502
lthumb 25.999 -0.802785
rfemur -34.4462 -1.79204 25.0126
rtibia 45.6334
rfoot -25.0696 -23.8957
rtoes -0.739553
lfemur -39.5755 -6.32015 -15.066
ltibia 47.8877
lfoot -27.317 12.3573
ltoes -56.3209
59
root 10.1434 14.8219 20.115 194.871 -2.60777 -177.93
lowerback 17.9845 3.27346 3.57152
upperback -2.00815 5.06753 -0.526268
thorax -11.9888 2.0949 -4.00615
lowerneck -7.00476 -6.06633 -10.6036
upperneck -7.91844 -7.57981 12.9909
head -0.252756 -3.90679 5.47132
rclavicle 6.62947e-014 2.38542e-015
rhumerus -26.8453 28.4801 -72.1584
rradius 47.4479
rwrist 9.12774
rhand 5.91319 -56.5892
rfingers 7.12502
rthumb 31.2406 -83.9445
lclavicle 6.62947e-014 2.38542e-015
lhumerus -47.4785 18.864 41.0297
lradius 32.1425
lwrist -13.6991
lhand 1.73253 -28.8399
lfingers 7.12502
lthumb 27.2488 -0.788316
rfemur -35.8453 -1.93643 25.1722
rtibia 47.0558
rfoot -25.4091 -23.5465
rtoes -2.13408
lfemur -40.7913 -5.61515 -15.0718
ltibia 49.126
lfoot -27.5713 12.1348
ltoes -56.1557
60
root 10.1474 14.7646 20.1244 195.287 -2.3551 -177.967
lowerback 18.3846 3.41899 3.64114
upperback -2.02296 5.27575 -0.659161
thorax -12.2011 2.17062 -4.28183
lowerneck -7.10364 -6.133 -10.5932
upperneck -8.43126 -7.67024 13.117
head -0.370577 -3.97706 5.51456
rclavicle 8.15017e-015 3.57812e-015
rhumerus -26.6493 28.9724 -71.883
rradius 47.5224
rwrist 8.64312
rhand 5.21044 -56.1575
rfingers 7.12502
rthumb 30.5707 -83.6399
lclavicle 8.15017e-015 3.57812e-015
lhumerus -46.811 20.4845 39.9107
lradius 31.473
lwrist -16.2438
lhand 2.74363 -27.4515
lfingers 7.12502
lthumb 28.2156 0.444482
rfemur -37.1374 -2.16224 25.2278
rtibia 48.5354
rfoot -25.7479 -23.2013
rtoes -3.20147
lfemur -41.8731 -5.00334 -15.2143
ltibia 50.3577
lfoot -27.9799 11.9644
ltoes -56.0766
61
root 10.1505 14.7049 20.132 195.633 -2.0987 -178.14
lowerback 18.7308 3.57114 3.56726
upperback -1.96534 5.45348 -0.786347
thorax -12.3135 2.24616 -4.45595
lowerneck -7.08497 -6.20013 -10.7088
upperneck -9.13123 -7.75945 13.2906
head -0.554595 -4.05436 5.60263
rclavicle -1.40143e-014 -7.15625e-015
rhumerus -26.2089 29.3246 -71.4449
rradius 47.4376
rwrist 8.20848
rhand 4.25845 -55.51
rfingers 7.12502
rthumb 29.6624 -83.1579
lclavicle -1.40143e-014 -7.15625e-015
lhumerus -46.0211 22.1247 38.9854
lradius 30.7751
lwrist -18.9558
lhand 3.80699 -26.2609
lfingers 7.12502
lthumb 29.2314 1.46285
rfemur -38.3612 -2.51053 25.1539
rtibia 50.0771
rfoot -26.3132 -22.7241
rtoes -3.66698
lfemur -42.8554 -4.43894 -15.5315
ltibia 51.5757
lfoot -28.3994 11.8572
ltoes -56.1857
62
root 10.1539 14.639 20.1397 195.984 -1.8057 -178.251
lowerback 18.9791 3.73259 3.51426
upperback -1.89515 5.65243 -0.837908
thorax -12.3579 2.33641 -4.55563
lowerneck -7.05651 -6.27395 -10.8814
upperneck -9.74887 -7.85586 13.3468
head -0.719653 -4.12718 5.66271
rclavicle 1.28017e-013 -5.1684e-015
rhumerus -25.6273 29.8716 -70.8407
rradius 47.2969
rwrist 7.67171
rhand 3.29599 -55.1866
rfingers 7.12502
rthumb 28.7434 -82.9942
lclavicle 1.28017e-013 -5.1684e-015
lhumerus -45.2372 24.1191 38.1974
lradius 30.0056
lwrist -22.6004
lhand 4.70064 -25.7529
lfingers 7.12502
lthumb 30.0844 1.81901
rfemur -39.6555 -2.81402 25.1461
rtibia 51.6559
rfoot -26.9673 -22.2434
rtoes -3.16223
lfemur -43.8825 -3.80158 -15.8059
ltibia 52.7964
lfoot -28.909 11.6213
ltoes -56.0982
